<svg xmlns="http://www.w3.org/2000/svg" viewBox="0 0 450.05 404.18"><defs><style>.cls-1{fill:none;}.cls-2{fill:#ffeace;}</style></defs><title>logo-vertical</title><g id="Layer_2" data-name="Layer 2"><g id="Layer_1-2" data-name="Layer 1"><path class="cls-1" d="M239.16,120.52V53.9H213.51V159.31C235.15,154.93,239.16,132.41,239.16,120.52Z"/><path class="cls-1" d="M239.16,18.23c-14.4-7.44-31.4-11.49-50.25-11.49H161.82V47.16h77.34Z"/><path class="cls-1" d="M161.82,53.9V204.26h27.09c1,0,2.07,0,3.11,0V53.9Z"/><path class="cls-1" d="M271.42,46.53Q269,43,266.27,39.79c-1.77-2.1-3.66-4.14-5.62-6.07v86.8c0,21-22.62,41.78-47.14,45.52v35.73c45.31-9.55,75-45.9,75-96.27C288.54,82.46,282.39,62.42,271.42,46.53Z"/><path class="cls-2" d="M260.65,13.41a99.85,99.85,0,0,0-21.49-9A120.35,120.35,0,0,0,206,0H140.35V211H206q3.81,0,7.48-.22c59.17-3.32,96.19-46.25,96.19-105.26C309.7,64.3,291.67,30.94,260.65,13.41ZM161.82,6.74h27.09c18.85,0,35.85,4,50.25,11.49V47.16H161.82ZM239.16,53.9v66.62c0,11.89-4,34.41-25.65,38.79V53.9ZM188.91,204.26H161.82V53.9H192V204.22C191,204.25,190,204.26,188.91,204.26Zm24.6-2.49V166c24.52-3.74,47.14-24.48,47.14-45.52V33.72c2,1.93,3.85,4,5.62,6.07s3.54,4.41,5.15,6.74c11,15.89,17.12,35.93,17.12,59C288.54,155.87,258.82,192.22,213.51,201.77Z"/><path class="cls-2" d="M57.25,269.37v2.44H32.52v74.07H24.73V271.81H0v-2.44Z"/><path class="cls-2" d="M68.54,345.88V269.37h7.79v76.51Z"/><path class="cls-2" d="M144.86,269.37v2.44H120.13v74.07h-7.79V271.81H87.62v-2.44Z"/><path class="cls-2" d="M156.15,345.88V269.37h7.79v76.51Z"/><path class="cls-2" d="M222.43,269.37v76.84c0,7.65-8.24,15.19-17.16,16.52v-2.44c7.9-1.55,9.37-9.75,9.37-14.08V269.37Z"/><path class="cls-2" d="M289.72,269.37V319.6c0,13.2-10.39,26.28-25.74,26.28h-4.52c-15.36,0-25.74-13.19-25.74-26.28V269.37h7.79v51a23.09,23.09,0,0,0,23.37,23.06c14.79,0,23.26-12.31,23.26-23.06v-51Z"/><path class="cls-2" d="M301,345.88V269.37h23.82c23,0,37.6,16,37.6,38.26s-14.56,38.25-37.6,38.25Zm17.61-2.44c21.34,0,36.14-14.41,36.14-35.81s-14.8-35.82-36.14-35.82H308.8v71.63Z"/><path class="cls-2" d="M373.72,345.88V269.37h7.8v76.51Z"/><path class="cls-2" d="M450.05,269.37v2.44H425.32v74.07h-7.79V271.81H392.81v-2.44Z"/><path class="cls-2" d="M38.76,391q0,6.34-3.39,9.6t-10,3.25H19.26V378.61H26.2q6.15,0,9.36,3.15T38.76,391Zm-1.95.07q0-5.42-2.8-8.16t-8.23-2.73H21.05v22.12H25.3Q36.82,402.28,36.81,391.05Z"/><path class="cls-2" d="M58.7,403.83h-14V378.61h14v1.62H46.46v9.54H58v1.62H46.46v10.82H58.7Z"/><path class="cls-2" d="M78.69,397.33a6,6,0,0,1-2.36,5,9.92,9.92,0,0,1-6.28,1.85,19.94,19.94,0,0,1-7.22-1V401.4a18.59,18.59,0,0,0,7.08,1.15,8,8,0,0,0,5-1.42,4.48,4.48,0,0,0,1.86-3.73,4.27,4.27,0,0,0-.62-2.38,5.51,5.51,0,0,0-2-1.71,24.77,24.77,0,0,0-4.08-1.68,13.92,13.92,0,0,1-5.43-2.87A6.09,6.09,0,0,1,65.4,380a9.09,9.09,0,0,1,5.81-1.78,17.22,17.22,0,0,1,6.8,1.34l-.65,1.52a16.18,16.18,0,0,0-6.12-1.31,7.3,7.3,0,0,0-4.53,1.29A4.21,4.21,0,0,0,65,384.61a4.63,4.63,0,0,0,.51,2.3,4.82,4.82,0,0,0,1.7,1.61,23.18,23.18,0,0,0,4,1.72,21.3,21.3,0,0,1,4.51,2A6.32,6.32,0,0,1,78,394.39,5.87,5.87,0,0,1,78.69,397.33Z"/><path class="cls-2" d="M84.12,403.83V378.61h1.79v25.22Z"/><path class="cls-2" d="M103.29,391.12h9.47v11.5a21.54,21.54,0,0,1-8.38,1.56q-6.07,0-9.32-3.38t-3.24-9.55a14.14,14.14,0,0,1,1.6-6.82,11.23,11.23,0,0,1,4.61-4.6,14.2,14.2,0,0,1,6.87-1.62,18,18,0,0,1,7.54,1.52l-.72,1.59a16.4,16.4,0,0,0-6.92-1.52,10.68,10.68,0,0,0-8.06,3.08,11.46,11.46,0,0,0-3,8.31c0,3.79.94,6.65,2.83,8.56s4.65,2.87,8.3,2.87a16.28,16.28,0,0,0,6-1v-8.87h-7.64Z"/><path class="cls-2" d="M137.88,403.83h-1.81l-15.21-22.39h-.14q.21,4,.21,6v16.35H119.2V378.61H121L136.19,401h.11q-.17-3.11-.16-5.9V378.61h1.74Z"/><path class="cls-2" d="M153,397.43a6.41,6.41,0,0,1,1.29-4.05,15,15,0,0,1,4.83-3.54l-1.32-1.42A9.43,9.43,0,0,1,156.1,386a5.56,5.56,0,0,1-.56-2.45,4.94,4.94,0,0,1,1.67-3.92,6.64,6.64,0,0,1,4.51-1.45,6.31,6.31,0,0,1,4.31,1.4,4.87,4.87,0,0,1,1.59,3.86,5.12,5.12,0,0,1-1.23,3.32,16.34,16.34,0,0,1-4.44,3.36l7.94,7.88a14.25,14.25,0,0,0,1.83-2.7,18.68,18.68,0,0,0,1.31-3.47h1.69a18.85,18.85,0,0,1-3.67,7.35l4.67,4.62h-2.37l-3.39-3.4a15.26,15.26,0,0,1-2.88,2.27,11.44,11.44,0,0,1-2.77,1.1,14.14,14.14,0,0,1-3.42.38,8.69,8.69,0,0,1-5.77-1.78A6.15,6.15,0,0,1,153,397.43Zm8,5.19a11,11,0,0,0,4.12-.75,11.54,11.54,0,0,0,3.68-2.52L160.33,391a21.63,21.63,0,0,0-3.45,2.11,5.63,5.63,0,0,0-1.55,1.89,5.52,5.52,0,0,0-.48,2.38,4.82,4.82,0,0,0,1.63,3.87A6.77,6.77,0,0,0,161,402.62Zm-3.6-19.08a4.74,4.74,0,0,0,.7,2.52,16.3,16.3,0,0,0,2.67,3,13.36,13.36,0,0,0,3.88-2.74,4.34,4.34,0,0,0,1.09-2.92,3.42,3.42,0,0,0-1.09-2.63,4.19,4.19,0,0,0-2.95-1,4.65,4.65,0,0,0-3.15,1A3.49,3.49,0,0,0,157.42,383.54Z"/><path class="cls-2" d="M209,391q0,6.34-3.39,9.6t-10,3.25h-6.15V378.61h6.94q6.15,0,9.36,3.15T209,391Zm-2,.07q0-5.42-2.8-8.16T196,380.16h-4.72v22.12h4.25Q207,402.28,207,391.05Z"/><path class="cls-2" d="M228.93,403.83h-14V378.61h14v1.62H216.69v9.54h11.56v1.62H216.69v10.82h12.24Z"/><path class="cls-2" d="M249.93,378.61h1.95l-9.61,25.22h-1.58l-9.58-25.22H233l6.46,17.16q1.48,3.89,2,5.84.35-1.31,1.38-4Z"/><path class="cls-2" d="M269.55,403.83h-14V378.61h14v1.62H257.31v9.54h11.55v1.62H257.31v10.82h12.24Z"/><path class="cls-2" d="M275.36,403.83V378.61h1.8v23.57H289.4v1.65Z"/><path class="cls-2" d="M315.42,391.19q0,6-3.06,9.49a11.88,11.88,0,0,1-16.84,0q-3.06-3.49-3.06-9.53t3.08-9.48a10.72,10.72,0,0,1,8.43-3.46,10.59,10.59,0,0,1,8.41,3.48Q315.43,385.16,315.42,391.19Zm-21,0q0,5.42,2.46,8.37a10,10,0,0,0,14.15,0q2.44-2.94,2.45-8.4T311,382.83a10,10,0,0,0-14.12,0C295.24,384.81,294.41,387.58,294.41,391.19Z"/><path class="cls-2" d="M336.78,385.85a6.65,6.65,0,0,1-2.53,5.61q-2.52,1.95-7.17,2h-4v10.42h-1.79V378.61h6.29Q336.78,378.61,336.78,385.85Zm-13.67,6h3.53q4.35,0,6.28-1.4a5.29,5.29,0,0,0,1.93-4.57A5.11,5.11,0,0,0,333,381.6c-1.22-.94-3.1-1.41-5.66-1.41h-4.25Z"/><path class="cls-2" d="M353.66,403.83l-9.57-23.29H344c.09,1.43.14,2.89.14,4.38v18.91h-1.72V378.61h2.77l9.1,22.18h.11l9.1-22.18h2.71v25.22h-1.81V384.71q0-2,.21-4.14h-.14l-9.61,23.26Z"/><path class="cls-2" d="M387.45,403.83h-14V378.61h14v1.62H375.2v9.54h11.56v1.62H375.2v10.82h12.25Z"/><path class="cls-2" d="M411.94,403.83h-1.81l-15.22-22.39h-.14q.21,4,.21,6v16.35h-1.72V378.61h1.8L410.25,401h.11q-.17-3.11-.16-5.9V378.61h1.74Z"/><path class="cls-2" d="M425.9,403.83h-1.81V380.26h-8.34v-1.65h18.5v1.65H425.9Z"/></g></g></svg>