<svg xmlns="http://www.w3.org/2000/svg" viewBox="0 0 169.36 210.98"><defs><style>.cls-1{opacity:0.1;}.cls-2{fill:none;}.cls-3{fill:#ffeace;}</style></defs><title>submark-light</title><g id="Layer_2" data-name="Layer 2"><g id="Layer_1-2" data-name="Layer 1"><g class="cls-1"><path class="cls-2" d="M98.81,120.52V53.9H73.16V159.31C94.8,154.93,98.81,132.41,98.81,120.52Z"/><path class="cls-2" d="M98.81,18.23C84.42,10.79,67.41,6.74,48.56,6.74H21.48V47.16H98.81Z"/><path class="cls-2" d="M21.48,53.9V204.26H48.56c1,0,2.07,0,3.11,0V53.9Z"/><path class="cls-2" d="M131.07,46.53c-1.6-2.33-3.33-4.58-5.14-6.74s-3.67-4.14-5.63-6.07v86.8c0,21-22.62,41.78-47.14,45.52v35.73c45.31-9.55,75-45.9,75-96.27C148.2,82.46,142,62.42,131.07,46.53Z"/><path class="cls-3" d="M120.3,13.41a99.85,99.85,0,0,0-21.49-9A120.27,120.27,0,0,0,65.69,0H0V211H65.69q3.8,0,7.47-.22c59.17-3.32,96.2-46.25,96.2-105.26C169.36,64.3,151.32,30.94,120.3,13.41ZM21.48,6.74H48.56c18.85,0,35.86,4,50.25,11.49V47.16H21.48ZM98.81,53.9v66.62c0,11.89-4,34.41-25.65,38.79V53.9ZM48.56,204.26H21.48V53.9H51.67V204.22C50.63,204.25,49.6,204.26,48.56,204.26Zm24.6-2.49V166c24.52-3.74,47.14-24.48,47.14-45.52V33.72c2,1.93,3.86,4,5.63,6.07s3.54,4.41,5.14,6.74c11,15.89,17.13,35.93,17.13,59C148.2,155.87,118.47,192.22,73.16,201.77Z"/></g></g></g></svg>