<svg xmlns="http://www.w3.org/2000/svg" viewBox="0 0 468.38 244.07"><defs><style>.cls-1{fill:none;}.cls-2{fill:#ffeace;}</style></defs><title>blog-logo</title><g id="Layer_2" data-name="Layer 2"><g id="Layer_1-2" data-name="Layer 1"><path class="cls-1" d="M86.18,122.07c0-.51,0-1,0-1.45A19.28,19.28,0,0,0,85,113.23c-.79-1.87-1.93-2.8-3.4-2.8a5.46,5.46,0,0,0-1.14.13,3.2,3.2,0,0,0-1.28.59,3.55,3.55,0,0,0-1.06,1.32,5,5,0,0,0-.43,2.21,7.47,7.47,0,0,0,2.43,5.73,13.79,13.79,0,0,0,5.9,3.19C86.11,123.09,86.15,122.58,86.18,122.07Z"/><path class="cls-1" d="M135.37,98.75q5.91-7.53,10.83-14.62a155.7,155.7,0,0,0,8.41-13.38,86.7,86.7,0,0,0,5.44-11.47,26.08,26.08,0,0,0,2-8.92,4,4,0,0,0-.68-1.82,1.94,1.94,0,0,0-1.62-1.15,7,7,0,0,0-3,.82V63.59h-4V50.87h0a70.64,70.64,0,0,0-9.39,9.47,165,165,0,0,0-10.45,14A176.13,176.13,0,0,0,122.75,91.4a181.44,181.44,0,0,0-8.49,18.77,109.63,109.63,0,0,0-5.52,19q7.22-7.47,14-15.16T135.37,98.75Z"/><path class="cls-1" d="M103.64,48.15q-3.06,0-7.35,3.32T86.35,62.26A228.64,228.64,0,0,0,73.43,81.8q-7.26,12.06-16.27,29.65a138.67,138.67,0,0,0,14.41-11.3A159.83,159.83,0,0,0,83.5,88.21a135.7,135.7,0,0,0,9.43-11.72,106.15,106.15,0,0,0,6.8-10.75,64.18,64.18,0,0,0,4.12-9,20.45,20.45,0,0,0,1.4-6.42C105.25,48.89,104.71,48.15,103.64,48.15Z"/><path class="cls-1" d="M8.21,44.4q-4,2.45-4,7.64a8.21,8.21,0,0,0,2.54,6.42q2.54,2.3,7.15,2.29,7.05,0,11.13-4t4.07-11.21V41.18l-7.7.32Q12.16,41.95,8.21,44.4Z"/><path class="cls-1" d="M133,26.57a11,11,0,0,0-9.2-4.32,13.22,13.22,0,0,0-10.21,4.19q-3.85,4.2-4.5,12.1h27.23C136.33,33.44,135.23,29.44,133,26.57Z"/><path class="cls-1" d="M337.32,124.57a37.28,37.28,0,0,0,.3-4.37,24.05,24.05,0,0,0-.42-4.67,17.18,17.18,0,0,0-1.15-3.7,6.82,6.82,0,0,0-1.79-2.46,3.5,3.5,0,0,0-2.33-.9,5,5,0,0,0-3.15,1.15,9.75,9.75,0,0,0-2.46,3.06,17.4,17.4,0,0,0-1.57,4.42,24.07,24.07,0,0,0-.55,5.22,37.43,37.43,0,0,0,.42,5.36,31.13,31.13,0,0,0,1.36,5.6,25,25,0,0,0,2.38,5.06,11.27,11.27,0,0,0,3.57,3.69,45.36,45.36,0,0,0,2.59-6.07c.71-2.07,1.3-4.06,1.78-6A44,44,0,0,0,337.32,124.57Z"/><path class="cls-1" d="M195.35,124.57a37.28,37.28,0,0,0,.3-4.37,24.05,24.05,0,0,0-.42-4.67,17.18,17.18,0,0,0-1.15-3.7,6.82,6.82,0,0,0-1.79-2.46,3.52,3.52,0,0,0-2.33-.9,5,5,0,0,0-3.15,1.15,9.75,9.75,0,0,0-2.46,3.06,17.4,17.4,0,0,0-1.57,4.42,24.07,24.07,0,0,0-.55,5.22,37.43,37.43,0,0,0,.42,5.36,31.13,31.13,0,0,0,1.36,5.6,25,25,0,0,0,2.38,5.06A11.27,11.27,0,0,0,190,142a45.36,45.36,0,0,0,2.59-6.07c.71-2.07,1.3-4.06,1.78-6A44,44,0,0,0,195.35,124.57Z"/><path class="cls-1" d="M255.33,137.4q2.43-4.2,5.19-8.62t6.16-9.18a8.66,8.66,0,0,0-.85-2.63,9.1,9.1,0,0,0-4.93-4.42,11.65,11.65,0,0,0-4.42-.76,32.82,32.82,0,0,0-6.58.76,36.31,36.31,0,0,0-7.78,2.64,45.35,45.35,0,0,0-8.28,5,49.47,49.47,0,0,0-8.2,7.9,60.8,60.8,0,0,0-9,13.89,30.84,30.84,0,0,0-3.15,12.62q0,5.52,2.81,8.37a10.22,10.22,0,0,0,7.64,2.84,22.57,22.57,0,0,0,10.83-3.14,57.6,57.6,0,0,0,11.35-8.33q2.3-4.33,4.54-8.54T255.33,137.4Z"/><path class="cls-1" d="M196.5,212a56.87,56.87,0,0,0-8.28,11.81q-2.59,5.26-2.6,8.07a9.78,9.78,0,0,0,1.53,5.69q1.53,2.21,5.53,2.21a11.93,11.93,0,0,0,6.71-2.38,37.73,37.73,0,0,0,7.05-6.5,82.39,82.39,0,0,0,7.05-9.56q3.48-5.43,6.88-11.59t6.5-12.62q3.1-6.47,5.91-12.66a133.56,133.56,0,0,0-21.62,13.81A112.58,112.58,0,0,0,196.5,212Z"/><path class="cls-2" d="M18.68,18.76A33.52,33.52,0,0,0,4.34,22.17l1.5,3.48a27.46,27.46,0,0,1,12.68-3.4c3.78,0,6.53,1.07,8.23,3.2s2.55,5.3,2.55,9.49v2.91l-8.39.25q-10.17.19-15.54,3.77A11.34,11.34,0,0,0,0,51.88q0,5.86,3.61,9.2T13.7,64.4A18.32,18.32,0,0,0,22,62.64a21.19,21.19,0,0,0,6.83-6h.32l1,7h3V34.29c0-5.33-1.19-9.24-3.59-11.76S23.52,18.76,18.68,18.76ZM29.14,45.51q0,7.17-4.07,11.21t-11.13,4q-4.62,0-7.15-2.29A8.21,8.21,0,0,1,4.25,52q0-5.19,4-7.64t13.23-2.9l7.7-.32Z"/><polygon class="cls-2" points="74.77 60.02 48.39 60.02 74.69 22.09 74.69 19.54 45.23 19.54 45.23 23.1 69.46 23.1 43.32 61.03 43.32 63.59 74.77 63.59 74.77 60.02"/><path class="cls-2" d="M128.69,6.28a44.13,44.13,0,0,0,5-5.59V0h-5.72a46.68,46.68,0,0,1-4,5.69q-2.89,3.75-5.85,7v.65H121Q125.19,9.77,128.69,6.28Z"/><path class="cls-2" d="M465.32,134.9q-3.06,4.59-6.42,9.39t-6.67,8.79a52.56,52.56,0,0,1-6.33,6.54q-3,2.55-5.22,2.55a3.2,3.2,0,0,1-2.08-.81,3.24,3.24,0,0,1-1-2.67,14.7,14.7,0,0,1,1.1-5.23,54.67,54.67,0,0,1,2.81-6q1.7-3.19,3.61-6.67c1.27-2.32,2.48-4.73,3.61-7.22a52.76,52.76,0,0,0,2.8-7.69,29.58,29.58,0,0,0,1.11-8,12.65,12.65,0,0,0-.85-4.84,9.17,9.17,0,0,0-5.57-5.31,11,11,0,0,0-3.69-.64,14.06,14.06,0,0,0-5,1,25.2,25.2,0,0,0-5.23,2.76,42.69,42.69,0,0,0-5.27,4.25,65.05,65.05,0,0,0-5.09,5.35q.08-.77.12-1.53c0-.51.05-1,.05-1.44a23.51,23.51,0,0,0-.64-5.4,15,15,0,0,0-2-4.8,10.83,10.83,0,0,0-3.7-3.44,11,11,0,0,0-5.6-1.32q-4.59,0-9.77,3.66a47.06,47.06,0,0,0-9.94,9.77,10.42,10.42,0,0,0-1.58-5,10.85,10.85,0,0,0-3-3.06,11.3,11.3,0,0,0-3.44-1.52,12.22,12.22,0,0,0-2.85-.43,13.39,13.39,0,0,0-6.92,1.87,27.14,27.14,0,0,0-6.42,5.52,85.62,85.62,0,0,0-6.84,9.09q-3.62,5.45-8.11,12.58a26.34,26.34,0,0,1-3,4,15.25,15.25,0,0,1-3.19,2.68,12.34,12.34,0,0,1-3.61,1.49,18.8,18.8,0,0,1-4.33.46h-.77a2.63,2.63,0,0,1-.68-.08,29.54,29.54,0,0,0,2.68-5.4,61,61,0,0,0,1.95-6.11,52.84,52.84,0,0,0,1.23-6.16,40.05,40.05,0,0,0,.43-5.61,28.67,28.67,0,0,0-.68-6.37,18.06,18.06,0,0,0-2-5.14,10,10,0,0,0-3.14-3.4,7.56,7.56,0,0,0-4.25-1.23,8.69,8.69,0,0,0-4.84,1.44,13.64,13.64,0,0,0-3.87,4,20.65,20.65,0,0,0-2.59,5.82,26,26,0,0,0-.93,7,41,41,0,0,0,.64,7.31,32.25,32.25,0,0,0,1.91,6.67,23.47,23.47,0,0,0,3.14,5.52,15.23,15.23,0,0,0,4.33,3.87,86.29,86.29,0,0,1-6.11,7.69,47.43,47.43,0,0,1-6.72,6.24,32.81,32.81,0,0,1-7.13,4.16,19,19,0,0,1-7.39,1.53c-3.23,0-5.64-1-7.23-2.93s-2.37-4.71-2.37-8.28a34.14,34.14,0,0,1,2.42-12.28,65.69,65.69,0,0,1,6.2-12.19,74.7,74.7,0,0,1,8.41-10.79,64.47,64.47,0,0,1,9.13-8.16l-2.72-3.56a46,46,0,0,0-7.81,4.58,70,70,0,0,0-7.56,6.29,67.57,67.57,0,0,0-6.8,7.52,59.53,59.53,0,0,0-5.48,8.37c-.21.39-.4.78-.6,1.17l-.21-.15a111.89,111.89,0,0,1-7.22,9.77,81.87,81.87,0,0,1-8.37,8.66,105.94,105.94,0,0,1-10.49,8.25q-5.87,4.06-13.59,8.49,3-6.7,6.24-13.68t6.46-13.51q3.18-6.54,6.12-12.36t5.14-10.15q2.2-4.34,3.56-6.92c.91-1.73,1.36-2.62,1.36-2.68l-2.8-1.87-4.59,6A24.51,24.51,0,0,0,267.7,112a13,13,0,0,0-3.23-2.84,19.57,19.57,0,0,0-5-2.21,24.46,24.46,0,0,0-7.1-.89,31.88,31.88,0,0,0-9.43,1.61,54.2,54.2,0,0,0-10.4,4.55,65.15,65.15,0,0,0-10.16,7.09,57.32,57.32,0,0,0-8.75,9.22,46.2,46.2,0,0,0-4.09,6.52l-.24-.19a25.08,25.08,0,0,1-3,4,15.25,15.25,0,0,1-3.19,2.68,12.23,12.23,0,0,1-3.61,1.49,18.8,18.8,0,0,1-4.33.46h-.77a2.63,2.63,0,0,1-.68-.08,29.54,29.54,0,0,0,2.68-5.4,61,61,0,0,0,1.95-6.11,52.84,52.84,0,0,0,1.23-6.16,40.05,40.05,0,0,0,.43-5.61,28.67,28.67,0,0,0-.68-6.37,18.06,18.06,0,0,0-2-5.14,10,10,0,0,0-3.14-3.4,7.56,7.56,0,0,0-4.25-1.23,8.69,8.69,0,0,0-4.84,1.44,13.64,13.64,0,0,0-3.87,4,20.94,20.94,0,0,0-2.59,5.82,26,26,0,0,0-.93,7,41,41,0,0,0,.64,7.31,32.25,32.25,0,0,0,1.91,6.67,23.47,23.47,0,0,0,3.14,5.52,15.23,15.23,0,0,0,4.33,3.87,86.29,86.29,0,0,1-6.11,7.69,47.43,47.43,0,0,1-6.72,6.24,32.81,32.81,0,0,1-7.13,4.16,19,19,0,0,1-7.39,1.53c-3.23,0-5.64-1-7.23-2.93s-2.37-4.71-2.37-8.28a34.14,34.14,0,0,1,2.42-12.28,65.69,65.69,0,0,1,6.2-12.19,74.7,74.7,0,0,1,8.41-10.79,64.47,64.47,0,0,1,9.13-8.16l-2.71-3.56a45.67,45.67,0,0,0-7.82,4.58A70,70,0,0,0,159,118a68.57,68.57,0,0,0-6.8,7.52,59.53,59.53,0,0,0-5.48,8.37c-.21.39-.4.78-.6,1.17l-.21-.15c-1,1.41-2.09,3.09-3.4,5s-2.76,3.92-4.37,6S134.76,150,133,152a51.36,51.36,0,0,1-5.61,5.39,31.27,31.27,0,0,1-5.82,3.87,12.76,12.76,0,0,1-5.82,1.48A7.6,7.6,0,0,1,109,159.2q-2.38-3.57-2.38-11c0-1.65,0-3.45,0-5.4a27.46,27.46,0,0,1,.64-6.16c1-1.07,2-2.05,3-2.93s2-1.85,3.14-2.93,2.44-2.36,3.91-3.87,3.29-3.45,5.44-5.86,4.71-5.34,7.69-8.79,6.5-7.7,10.58-12.75c2-2.49,4.09-5.21,6.15-8.15s4-6,5.95-9.09,3.67-6.25,5.31-9.39,3.07-6.15,4.29-9A71.52,71.52,0,0,0,165.53,56a23,23,0,0,0,1.06-6.29c0-2.55-.66-4.3-2-5.27a8.28,8.28,0,0,0-5-1.44,12.71,12.71,0,0,0-2.87.35v-4q0-9,3.67-13t11.57-4q5.88,0,8.67,3t2.8,9.67V63.59h4V34.77q0-16.08-15-16.09-11,0-15.27,6.89h-.25l-.77-6h-3.4V44.77c-.53.25-1.07.52-1.62.83a53.1,53.1,0,0,0-9.73,7.31c-2.05,1.9-4.13,4-6.23,6.37a28.49,28.49,0,0,1-3.56.94,36,36,0,0,1-6.62.53q-7.74,0-11.9-4.78a16.79,16.79,0,0,1-3.55-7.47,6.83,6.83,0,0,0-.16-.81,30.87,30.87,0,0,1-.52-5.58h31.73V38.87q0-9.33-4.5-14.76t-12.28-5.43q-8.79,0-14,6.35t-5.19,16.88c0,.42,0,.82,0,1.24a8.23,8.23,0,0,0-1.17-.27,18,18,0,0,0-1.83-.17,15.81,15.81,0,0,0-8.45,2.85,51.58,51.58,0,0,0-9,7.52,114.26,114.26,0,0,0-9,10.62q-4.52,6-8.59,12.15A365.31,365.31,0,0,0,47.48,108.9a133.18,133.18,0,0,0-9.39,22.94,63.36,63.36,0,0,0-2.76,16.82,27.57,27.57,0,0,0,1.44,9.56,16.32,16.32,0,0,0,3.95,6.24,14.57,14.57,0,0,0,5.78,3.4,23.14,23.14,0,0,0,6.93,1,24.24,24.24,0,0,0,11-2.84A38.47,38.47,0,0,0,75,157.88a58.69,58.69,0,0,0,8.92-12.75,65.22,65.22,0,0,0,6-16.6,31.61,31.61,0,0,0,.6-3.87c.11-1.28.17-2.56.17-3.87a29.63,29.63,0,0,0-.51-5.56,16.2,16.2,0,0,0-1.62-4.72,9.55,9.55,0,0,0-2.8-3.27A6.76,6.76,0,0,0,81.63,106a8.11,8.11,0,0,0-5.94,2.34,8.79,8.79,0,0,0-2.38,6.58,12,12,0,0,0,.68,3.95,12.29,12.29,0,0,0,2.12,3.78,14.19,14.19,0,0,0,3.78,3.19A19.62,19.62,0,0,0,85.46,128a30.57,30.57,0,0,1-1.7,6,68.42,68.42,0,0,1-3.49,7.64,75.14,75.14,0,0,1-5,8.12,50.2,50.2,0,0,1-6.24,7.35,32.66,32.66,0,0,1-7.18,5.3A16.06,16.06,0,0,1,50,164a9.17,9.17,0,0,1-3.49-1.74,8.32,8.32,0,0,1-2.42-3.4,14.57,14.57,0,0,1-.89-5.48,36.56,36.56,0,0,1,.51-5.6,65.77,65.77,0,0,1,1.7-7.44q1.19-4.2,3.19-9.43t5-11.68a143.59,143.59,0,0,0,16.52-11.89A162.72,162.72,0,0,0,84,94.29,137.82,137.82,0,0,0,95,81.07a125.13,125.13,0,0,0,8.07-12.4A65.73,65.73,0,0,0,108,58.05c.19-.53.33-1,.48-1.52A19.22,19.22,0,0,0,110,58.48q5.37,5.93,15,5.92a38.46,38.46,0,0,0,6.19-.47l-.06.07a148.91,148.91,0,0,0-10,13.93q-4.8,7.51-9,15.85a154,154,0,0,0-7.39,16.86,124.88,124.88,0,0,0-5,17,76.62,76.62,0,0,0-1.83,16.19,33.54,33.54,0,0,0,1.49,10.62,21.83,21.83,0,0,0,3.9,7.26,14.78,14.78,0,0,0,5.61,4.17,17.23,17.23,0,0,0,14.87-.81,39.55,39.55,0,0,0,7.69-5.35,65.3,65.3,0,0,0,6.8-7c1.31-1.59,2.51-3.1,3.6-4.57a28.22,28.22,0,0,0-.2,3.16,21.61,21.61,0,0,0,1.27,7.65,17.44,17.44,0,0,0,3.57,5.86,15.22,15.22,0,0,0,5.48,3.78,17.88,17.88,0,0,0,6.92,1.32,28.48,28.48,0,0,0,7.9-1.23,34,34,0,0,0,8.58-3.95,45.75,45.75,0,0,0,8.5-7,56.33,56.33,0,0,0,7.82-10.41,12.79,12.79,0,0,0,3.14.34,19.34,19.34,0,0,0,9.18-2.29,17.77,17.77,0,0,0,2.16-1.38,33.86,33.86,0,0,0-.89,7.75,20.88,20.88,0,0,0,1.66,8.84,15.91,15.91,0,0,0,4.29,5.73,16.24,16.24,0,0,0,5.86,3.1,23.21,23.21,0,0,0,6.46.94,25,25,0,0,0,9-1.83,46.73,46.73,0,0,0,9.13-4.8q-1.19,2.72-2.55,6t-3,6.92Q223,183.49,212.6,190.29A120.94,120.94,0,0,0,195,204a57.62,57.62,0,0,0-11,13.85,29.29,29.29,0,0,0-3.78,14.1A13.3,13.3,0,0,0,181.5,238a10.62,10.62,0,0,0,3.11,3.74,10.8,10.8,0,0,0,4,1.83,19.26,19.26,0,0,0,4,.46A22.35,22.35,0,0,0,203,241q5.73-3.06,12.4-10.62a128.22,128.22,0,0,0,14.15-20.51,273.13,273.13,0,0,0,15.55-32.76q9.77-5.87,16.86-10.74a138.11,138.11,0,0,0,12.41-9.52,84.71,84.71,0,0,0,9.26-9.35c.09-.11.18-.23.28-.34a27.55,27.55,0,0,0-.33,4.12,21.61,21.61,0,0,0,1.28,7.65,17.44,17.44,0,0,0,3.57,5.86,15.22,15.22,0,0,0,5.48,3.78,17.88,17.88,0,0,0,6.92,1.32,28.48,28.48,0,0,0,7.9-1.23,33.82,33.82,0,0,0,8.58-3.95,46.07,46.07,0,0,0,8.5-7,56.77,56.77,0,0,0,7.82-10.41,12.79,12.79,0,0,0,3.14.34,19.34,19.34,0,0,0,9.18-2.29q4.32-2.29,8.41-8.07,4.15-6,7.43-10.92t6.12-8.54a31.32,31.32,0,0,1,5.44-5.52,8.73,8.73,0,0,1,5.31-2,5.41,5.41,0,0,1,3.73,1.28,5.28,5.28,0,0,1,1.45,4.16,19.06,19.06,0,0,1-1.19,6,66.24,66.24,0,0,1-3.23,7.65q-2,4.16-4.71,8.79t-5.61,9.3q-2.94,4.68-6,9.22l-5.73,8.62,5.86,3.91a158.09,158.09,0,0,0,11.13-14.06q5.1-7.26,9.47-14.15T392,128q3.78-6.15,7.09-10.79a45.67,45.67,0,0,1,6.29-7.3,8.85,8.85,0,0,1,5.86-2.68,4.13,4.13,0,0,1,2.08.47,4.33,4.33,0,0,1,1.32,1.14,3.75,3.75,0,0,1,.68,1.58,9.49,9.49,0,0,1,.17,1.74,28.2,28.2,0,0,1-1.7,9.22,90.81,90.81,0,0,1-4.67,10.79q-3,5.9-6.93,13.21t-8.45,16.57l7.14,3.73q3.3-5.68,6.92-11.85t7.31-12.15q3.69-6,7.43-11.38a105.94,105.94,0,0,1,7.31-9.48,44.12,44.12,0,0,1,6.88-6.5,10.82,10.82,0,0,1,6.29-2.42,2.81,2.81,0,0,1,2.55,1.07,5.21,5.21,0,0,1,.68,2.84,20,20,0,0,1-1.28,7,45.51,45.51,0,0,1-3.23,6.84q-1.95,3.41-4.2,6.84c-1.5,2.29-2.91,4.6-4.21,6.92a46.8,46.8,0,0,0-3.23,7.06,21.49,21.49,0,0,0-1.27,7.3,12.14,12.14,0,0,0,.76,4.59,8.13,8.13,0,0,0,2,3A7.81,7.81,0,0,0,434.6,167a11.65,11.65,0,0,0,3.44.51,13.49,13.49,0,0,0,6.46-1.74,31.58,31.58,0,0,0,6.25-4.5,53.46,53.46,0,0,0,5.73-6.2c1.81-2.3,3.48-4.56,5-6.8s2.88-4.33,4-6.29,2.11-3.52,2.85-4.71ZM113.6,26.44a13.22,13.22,0,0,1,10.21-4.19,11,11,0,0,1,9.2,4.32c2.22,2.87,3.32,6.87,3.32,12H109.1Q109.75,30.64,113.6,26.44Zm-33.45,94a7.47,7.47,0,0,1-2.43-5.73,5,5,0,0,1,.43-2.21,3.55,3.55,0,0,1,1.06-1.32,3.2,3.2,0,0,1,1.28-.59,5.46,5.46,0,0,1,1.14-.13c1.47,0,2.61.93,3.4,2.8a19.28,19.28,0,0,1,1.19,7.39c0,.46,0,.94,0,1.45s-.07,1-.13,1.53A13.79,13.79,0,0,1,80.15,120.41Zm23.7-63.63a64.18,64.18,0,0,1-4.12,9,106.15,106.15,0,0,1-6.8,10.75A135.7,135.7,0,0,1,83.5,88.21a159.83,159.83,0,0,1-11.93,11.94,138.67,138.67,0,0,1-14.41,11.3q9-17.6,16.27-29.65A228.64,228.64,0,0,1,86.35,62.26Q92,54.78,96.29,51.47t7.35-3.32c1.07,0,1.61.74,1.61,2.21A20.45,20.45,0,0,1,103.85,56.78Zm10.41,53.39a181.44,181.44,0,0,1,8.49-18.77,176.13,176.13,0,0,1,10.16-17.08,165,165,0,0,1,10.45-14,70.64,70.64,0,0,1,9.39-9.47h0V63.59h4V48.21a7,7,0,0,1,3-.82,1.94,1.94,0,0,1,1.62,1.15,4,4,0,0,1,.68,1.82,26.08,26.08,0,0,1-2,8.92,86.7,86.7,0,0,1-5.44,11.47,155.7,155.7,0,0,1-8.41,13.38q-4.92,7.09-10.83,14.62T122.71,114q-6.75,7.68-14,15.16A109.63,109.63,0,0,1,114.26,110.17ZM190,142a11.27,11.27,0,0,1-3.57-3.69,25,25,0,0,1-2.38-5.06,31.13,31.13,0,0,1-1.36-5.6,37.43,37.43,0,0,1-.42-5.36,24.07,24.07,0,0,1,.55-5.22,17.4,17.4,0,0,1,1.57-4.42,9.75,9.75,0,0,1,2.46-3.06,5,5,0,0,1,3.15-1.15,3.52,3.52,0,0,1,2.33.9,6.82,6.82,0,0,1,1.79,2.46,17.18,17.18,0,0,1,1.15,3.7,24.05,24.05,0,0,1,.42,4.67,37.28,37.28,0,0,1-.3,4.37,44,44,0,0,1-1,5.4c-.48,1.93-1.07,3.92-1.78,6A45.36,45.36,0,0,1,190,142Zm36.91,55.06q-3.09,6.45-6.5,12.62t-6.88,11.59a82.39,82.39,0,0,1-7.05,9.56,37.73,37.73,0,0,1-7.05,6.5,11.93,11.93,0,0,1-6.71,2.38q-4,0-5.53-2.21a9.78,9.78,0,0,1-1.53-5.69q0-2.81,2.6-8.07A56.87,56.87,0,0,1,196.5,212a112.58,112.58,0,0,1,14.66-13.72,133.56,133.56,0,0,1,21.62-13.81Q230,190.63,226.87,197.09Zm7.9-34.41a22.57,22.57,0,0,1-10.83,3.14A10.22,10.22,0,0,1,216.3,163q-2.81-2.85-2.81-8.37A30.84,30.84,0,0,1,216.64,142a60.8,60.8,0,0,1,9-13.89,49.47,49.47,0,0,1,8.2-7.9,45.35,45.35,0,0,1,8.28-5,36.31,36.31,0,0,1,7.78-2.64,32.82,32.82,0,0,1,6.58-.76,11.65,11.65,0,0,1,4.42.76,9.1,9.1,0,0,1,4.93,4.42,8.66,8.66,0,0,1,.85,2.63q-3.4,4.77-6.16,9.18t-5.19,8.62q-2.42,4.22-4.67,8.41t-4.54,8.54A57.6,57.6,0,0,1,234.77,162.68ZM331.93,142a11.27,11.27,0,0,1-3.57-3.69,25,25,0,0,1-2.38-5.06,31.13,31.13,0,0,1-1.36-5.6,37.43,37.43,0,0,1-.42-5.36,24.07,24.07,0,0,1,.55-5.22,17.4,17.4,0,0,1,1.57-4.42,9.75,9.75,0,0,1,2.46-3.06,5,5,0,0,1,3.15-1.15,3.5,3.5,0,0,1,2.33.9,6.82,6.82,0,0,1,1.79,2.46,17.18,17.18,0,0,1,1.15,3.7,24.05,24.05,0,0,1,.42,4.67,37.28,37.28,0,0,1-.3,4.37,44,44,0,0,1-1,5.4c-.48,1.93-1.07,3.92-1.78,6A45.36,45.36,0,0,1,331.93,142Z"/></g></g></svg>