<svg xmlns="http://www.w3.org/2000/svg" width="208.646" height="43.155" viewBox="0 0 208.646 43.155"><path d="M271.318,343.817a4.169,4.169,0,0,0,1.313,3.365q1.313,1.114,4.469,1.181v2.008q-4.3,0-6.123-1.654a6.558,6.558,0,0,1-1.82-5.1v-7.436q0-4.523-5.075-4.612V329.8a5.843,5.843,0,0,0,3.883-1.125,4.192,4.192,0,0,0,1.192-3.266v-7.723q0-6.6,7.943-6.73v1.986a7.164,7.164,0,0,0-4.413,1.279,4.307,4.307,0,0,0-1.368,3.465v6.73a7.6,7.6,0,0,1-.971,4.281,4.828,4.828,0,0,1-3.133,1.875v.176a4.806,4.806,0,0,1,3.123,1.843,7.164,7.164,0,0,1,.981,4.115Z" transform="translate(-264.081 -310.961)" fill="#ffeace"/><g transform="translate(195.627)"><path d="M714.466,336.712a7.153,7.153,0,0,1,.982-4.115,4.8,4.8,0,0,1,3.122-1.843v-.176a4.775,4.775,0,0,1-3.122-1.853,7.588,7.588,0,0,1-.982-4.3v-6.73a4.328,4.328,0,0,0-1.357-3.453,7.1,7.1,0,0,0-4.424-1.291v-1.986a8.973,8.973,0,0,1,5.892,1.71,6.162,6.162,0,0,1,2.052,5.02v7.723a4.165,4.165,0,0,0,1.2,3.277A5.9,5.9,0,0,0,721.7,329.8v1.765q-5.076.088-5.075,4.612v7.436a6.565,6.565,0,0,1-1.821,5.086q-1.82,1.666-6.123,1.665v-2.008a7.14,7.14,0,0,0,4.447-1.159,4.16,4.16,0,0,0,1.335-3.387Z" transform="translate(-708.684 -310.961)" fill="#ffeace"/></g><g transform="translate(25.724 0.678)"><g transform="translate(0 1.266)"><path d="M335.3,348.793h-2.273V318.651h-10.48v-2.118h23.235v2.118H335.3Z" transform="translate(-322.543 -316.026)" fill="#ffeace"/><path d="M384.274,317.5q0-2.118,1.39-2.118a1.234,1.234,0,0,1,1.07.552,2.713,2.713,0,0,1,.386,1.566,2.777,2.777,0,0,1-.386,1.566,1.221,1.221,0,0,1-1.07.574Q384.274,319.639,384.274,317.5Zm2.494,30.649h-2.185V324.162h2.185Z" transform="translate(-357.112 -315.38)" fill="#ffeace"/><path d="M410.119,350.438a16.381,16.381,0,0,0,3.618-.353v1.765a11.585,11.585,0,0,1-3.663.529,5.962,5.962,0,0,1-4.689-1.7q-1.512-1.7-1.511-5.339v-15.49h-3.553v-1.28l3.553-.993,1.1-5.428H406.1v5.8h7.039v1.9H406.1v15.181a6.928,6.928,0,0,0,.971,4.082A3.524,3.524,0,0,0,410.119,350.438Z" transform="translate(-366.099 -319.171)" fill="#ffeace"/><path d="M441.895,317.5q0-2.118,1.39-2.118a1.234,1.234,0,0,1,1.07.552,2.713,2.713,0,0,1,.386,1.566,2.777,2.777,0,0,1-.386,1.566,1.221,1.221,0,0,1-1.07.574Q441.9,319.639,441.895,317.5Zm2.493,30.649H442.2V324.162h2.185Z" transform="translate(-389.38 -315.38)" fill="#ffeace"/></g><g transform="translate(64.236)"><path d="M471.865,357.619a8.045,8.045,0,0,1-3.333-.6v-1.942a13.256,13.256,0,0,0,3.289.441q5.339,0,5.339-5.825V317.217h2.251v32.26Q479.411,357.619,471.865,357.619Z" transform="translate(-468.532 -315.143)" fill="#ffeace"/><path d="M513.823,336.022v15.534q0,3.619,1.522,5.262a6.144,6.144,0,0,0,4.722,1.644q4.281,0,6.3-2.163t2.019-7.039v-13.24h2.162v23.985H528.7l-.4-3.31h-.133q-2.338,3.752-8.318,3.751-8.187,0-8.186-8.76V336.022Z" transform="translate(-492.684 -325.674)" fill="#ffeace"/><path d="M579.854,322.388a9.962,9.962,0,0,1,4.5.949,8.958,8.958,0,0,1,3.4,3.244h.133q-.131-2.781-.133-5.45V312.5h2.163v34.334h-1.434l-.552-3.663h-.177a8.875,8.875,0,0,1-7.855,4.1q-4.964,0-7.59-3.089t-2.625-9q0-6.223,2.6-9.51T579.854,322.388Zm0,1.986a6.787,6.787,0,0,0-5.9,2.758q-1.974,2.758-1.974,8.01,0,10.194,7.921,10.194,4.06,0,5.958-2.361t1.9-7.789v-.375q0-5.561-1.864-8T579.854,324.374Z" transform="translate(-525.176 -312.503)" fill="#ffeace"/><path d="M633.27,318.182q0-2.118,1.39-2.118a1.234,1.234,0,0,1,1.07.552,2.712,2.712,0,0,1,.386,1.566,2.776,2.776,0,0,1-.386,1.566,1.22,1.22,0,0,1-1.07.574Q633.27,320.323,633.27,318.182Zm2.493,30.649h-2.185V324.846h2.185Z" transform="translate(-560.785 -314.497)" fill="#ffeace"/><path d="M659.115,351.122a16.379,16.379,0,0,0,3.618-.353v1.765a11.584,11.584,0,0,1-3.663.529,5.962,5.962,0,0,1-4.689-1.7q-1.512-1.7-1.511-5.339v-15.49h-3.553v-1.28l3.553-.993,1.1-5.428H655.1v5.8h7.039v1.9H655.1v15.181a6.928,6.928,0,0,0,.971,4.082A3.525,3.525,0,0,0,659.115,351.122Z" transform="translate(-569.771 -318.288)" fill="#ffeace"/></g></g></svg>