<svg xmlns="http://www.w3.org/2000/svg" viewBox="0 0 421.53 101.57"><defs><style>.cls-1{fill:none;}.cls-2{fill:#ffeace;}</style></defs><title>main-logo</title><g id="Layer_2" data-name="Layer 2"><g id="Layer_1-2" data-name="Layer 1"><path class="cls-1" d="M46.53,8.74A50.43,50.43,0,0,0,22.87,3.23H10.11V22.61H46.53Z"/><path class="cls-1" d="M46.53,57.79V25.84H34.45V76.39C44.64,74.29,46.53,63.49,46.53,57.79Z"/><path class="cls-1" d="M61.72,22.31c-.75-1.12-1.57-2.2-2.42-3.23s-1.72-2-2.65-2.91V57.79c0,10.09-10.65,20-22.2,21.83V96.75c21.34-4.58,35.34-22,35.34-46.16C69.79,39.54,66.89,29.93,61.72,22.31Z"/><path class="cls-1" d="M10.11,25.84v72.1H22.87c.49,0,1,0,1.46,0V25.84Z"/><path class="cls-2" d="M56.65,6.43a46.48,46.48,0,0,0-10.12-4.3A55.71,55.71,0,0,0,30.93,0H0V101.17H30.93c1.2,0,2.37,0,3.52-.11,27.87-1.59,45.3-22.18,45.3-50.47C79.75,30.83,71.26,14.83,56.65,6.43ZM10.11,3.23H22.87A50.43,50.43,0,0,1,46.53,8.74V22.61H10.11ZM46.53,25.84v32c0,5.7-1.89,16.5-12.08,18.6V25.84ZM22.87,97.94H10.11V25.84H24.33V97.92C23.84,97.94,23.36,97.94,22.87,97.94Zm11.58-1.19V79.62c11.55-1.8,22.2-11.74,22.2-21.83V16.17c.93.93,1.82,1.9,2.65,2.91s1.67,2.11,2.42,3.23c5.17,7.62,8.07,17.23,8.07,28.28C69.79,74.74,55.79,92.17,34.45,96.75Z"/><path class="cls-2" d="M147.2,5.7V7.43H129.93V60.11h-5.44V7.43H107.22V5.7Z"/><path class="cls-2" d="M155.08,60.11V5.7h5.44V60.11Z"/><path class="cls-2" d="M208.39,5.7V7.43H191.12V60.11h-5.44V7.43H168.41V5.7Z"/><path class="cls-2" d="M216.27,60.11V5.7h5.44V60.11Z"/><path class="cls-2" d="M262.56,5.7V60.35c0,5.44-5.76,10.8-12,11.75V70.36c5.52-1.1,6.55-6.94,6.55-10V5.7Z"/><path class="cls-2" d="M309.55,5.7V41.42c0,9.38-7.25,18.69-18,18.69h-3.16c-10.72,0-18-9.38-18-18.69V5.7h5.44V42c0,7.73,5.92,16.4,16.33,16.4s16.24-8.75,16.24-16.4V5.7Z"/><path class="cls-2" d="M317.44,60.11V5.7h16.64c16.08,0,26.26,11.35,26.26,27.2s-10.18,27.21-26.26,27.21Zm12.3-1.74c14.9,0,25.23-10.25,25.23-25.47S344.64,7.43,329.74,7.43h-6.86V58.37Z"/><path class="cls-2" d="M368.22,60.11V5.7h5.44V60.11Z"/><path class="cls-2" d="M421.53,5.7V7.43H404.26V60.11h-5.44V7.43H381.55V5.7Z"/><path class="cls-2" d="M134.29,92.18q0,4.51-2.37,6.83T125,101.32h-4.3V83.38h4.85q4.29,0,6.53,2.25C133.54,87.12,134.29,89.31,134.29,92.18Zm-1.36,0q0-3.86-2-5.8a7.84,7.84,0,0,0-5.75-1.94h-3.3v15.73h3Q132.93,100.22,132.93,92.23Z"/><path class="cls-2" d="M148.21,101.32h-9.8V83.38h9.8v1.16h-8.55v6.78h8.08v1.15h-8.08v7.7h8.55Z"/><path class="cls-2" d="M162.18,96.7a4.29,4.29,0,0,1-1.65,3.55,6.84,6.84,0,0,1-4.39,1.32,13.77,13.77,0,0,1-5-.73V99.59a12.71,12.71,0,0,0,4.94.82,5.55,5.55,0,0,0,3.51-1,3.21,3.21,0,0,0,1.29-2.66,3,3,0,0,0-.43-1.68,3.81,3.81,0,0,0-1.4-1.22,16.37,16.37,0,0,0-2.84-1.19,9.6,9.6,0,0,1-3.8-2.05,4,4,0,0,1-1.05-2.92,4,4,0,0,1,1.58-3.28,6.23,6.23,0,0,1,4-1.27,11.82,11.82,0,0,1,4.75,1l-.45,1.08a11.14,11.14,0,0,0-4.27-.93,5,5,0,0,0-3.17.92,3,3,0,0,0-1.18,2.5,3.25,3.25,0,0,0,.36,1.63,3.29,3.29,0,0,0,1.19,1.15A16,16,0,0,0,157,91.65a15.1,15.1,0,0,1,3.15,1.41,4.43,4.43,0,0,1,1.54,1.54A4.18,4.18,0,0,1,162.18,96.7Z"/><path class="cls-2" d="M166,101.32V83.38h1.25v17.94Z"/><path class="cls-2" d="M179.35,92.28H186v8.18a14.82,14.82,0,0,1-5.86,1.11,8.48,8.48,0,0,1-6.5-2.4,9.52,9.52,0,0,1-2.27-6.79,10.31,10.31,0,0,1,1.12-4.86,7.87,7.87,0,0,1,3.22-3.27,9.85,9.85,0,0,1,4.8-1.15,12.41,12.41,0,0,1,5.27,1.08l-.51,1.13a11.34,11.34,0,0,0-4.83-1.08,7.4,7.4,0,0,0-5.63,2.19,8.26,8.26,0,0,0-2.08,5.91q0,4,2,6.09a7.72,7.72,0,0,0,5.8,2,11.17,11.17,0,0,0,4.21-.7v-6.3h-5.34Z"/><path class="cls-2" d="M203.51,101.32h-1.26L191.62,85.39h-.1c.1,1.9.15,3.33.15,4.3v11.63h-1.2V83.38h1.25l10.61,15.9h.08c-.08-1.47-.11-2.87-.11-4.19V83.38h1.21Z"/><path class="cls-2" d="M214.09,96.77a4.62,4.62,0,0,1,.9-2.88,10.3,10.3,0,0,1,3.37-2.52l-.92-1a7.17,7.17,0,0,1-1.21-1.7,4.09,4.09,0,0,1-.39-1.74A3.54,3.54,0,0,1,217,84.13a4.58,4.58,0,0,1,3.15-1,4.35,4.35,0,0,1,3,1,3.51,3.51,0,0,1,1.11,2.75,3.64,3.64,0,0,1-.86,2.36,11.18,11.18,0,0,1-3.1,2.39l5.55,5.61a10.06,10.06,0,0,0,1.27-1.93,13.37,13.37,0,0,0,.92-2.46h1.18A13.57,13.57,0,0,1,226.68,98l3.26,3.29h-1.66l-2.37-2.42a10.44,10.44,0,0,1-2,1.62,7.65,7.65,0,0,1-1.93.78,9.59,9.59,0,0,1-2.39.27,6,6,0,0,1-4-1.27A4.43,4.43,0,0,1,214.09,96.77Zm5.58,3.69a7.65,7.65,0,0,0,2.88-.53,8.16,8.16,0,0,0,2.57-1.8l-5.93-5.95a15,15,0,0,0-2.41,1.5A4.08,4.08,0,0,0,215.7,95a4,4,0,0,0-.34,1.69,3.45,3.45,0,0,0,1.14,2.75A4.68,4.68,0,0,0,219.67,100.46Zm-2.52-13.57a3.38,3.38,0,0,0,.5,1.79,11.06,11.06,0,0,0,1.86,2.14,9.6,9.6,0,0,0,2.71-1.95,3.14,3.14,0,0,0,.76-2.08,2.46,2.46,0,0,0-.76-1.87,2.87,2.87,0,0,0-2.06-.72,3.17,3.17,0,0,0-2.2.72A2.48,2.48,0,0,0,217.15,86.89Z"/><path class="cls-2" d="M253.18,92.18q0,4.51-2.37,6.83t-7,2.31h-4.29V83.38h4.84c2.87,0,5,.75,6.54,2.25S253.18,89.31,253.18,92.18Zm-1.37,0q0-3.86-1.95-5.8a7.86,7.86,0,0,0-5.75-1.94h-3.3v15.73h3Q251.82,100.22,251.81,92.23Z"/><path class="cls-2" d="M267.1,101.32h-9.8V83.38h9.8v1.16h-8.55v6.78h8.07v1.15h-8.07v7.7h8.55Z"/><path class="cls-2" d="M281.76,83.38h1.37l-6.72,17.94h-1.1l-6.69-17.94H270l4.52,12.21c.68,1.84,1.14,3.22,1.38,4.15.17-.62.49-1.57,1-2.86Z"/><path class="cls-2" d="M295.47,101.32h-9.81V83.38h9.81v1.16h-8.55v6.78H295v1.15h-8.07v7.7h8.55Z"/><path class="cls-2" d="M299.53,101.32V83.38h1.25v16.76h8.55v1.18Z"/><path class="cls-2" d="M327.5,92.33a10,10,0,0,1-2.13,6.75,8.2,8.2,0,0,1-11.77,0,10.07,10.07,0,0,1-2.13-6.78,9.86,9.86,0,0,1,2.15-6.74,8.25,8.25,0,0,1,11.76,0A10.06,10.06,0,0,1,327.5,92.33Zm-14.67,0a9.13,9.13,0,0,0,1.72,6,6,6,0,0,0,4.93,2.11,6,6,0,0,0,4.95-2.09,9.19,9.19,0,0,0,1.71-6,9.11,9.11,0,0,0-1.71-6,6.92,6.92,0,0,0-9.87,0A9.07,9.07,0,0,0,312.83,92.33Z"/><path class="cls-2" d="M342.42,88.54a4.75,4.75,0,0,1-1.77,4,7.87,7.87,0,0,1-5,1.39h-2.77v7.41h-1.26V83.38H336Q342.43,83.38,342.42,88.54Zm-9.54,4.29h2.46a7.45,7.45,0,0,0,4.38-1,3.77,3.77,0,0,0,1.35-3.24,3.65,3.65,0,0,0-1.28-3.08,6.34,6.34,0,0,0-4-1h-3Z"/><path class="cls-2" d="M354.21,101.32l-6.69-16.56h-.09c.06,1,.09,2,.09,3.11v13.45h-1.2V83.38h1.94l6.36,15.78h.07L361,83.38h1.89v17.94h-1.26V87.73c0-1,.05-1.93.15-3h-.1L355,101.32Z"/><path class="cls-2" d="M377.8,101.32H368V83.38h9.8v1.16h-8.55v6.78h8.08v1.15h-8.08v7.7h8.55Z"/><path class="cls-2" d="M394.91,101.32h-1.27L383,85.39h-.1c.1,1.9.15,3.33.15,4.3v11.63h-1.2V83.38h1.25l10.61,15.9h.07c-.07-1.47-.11-2.87-.11-4.19V83.38h1.22Z"/><path class="cls-2" d="M404.66,101.32H403.4V84.56h-5.83V83.38h12.92v1.18h-5.83Z"/></g></g></svg>