<svg xmlns="http://www.w3.org/2000/svg" width="30px" height="17.22px" viewBox="0 0 40 22.96"><defs><style>.cls-1{fill:#0d0d0d;}</style></defs><title>Asset 2</title><g id="Layer_2" data-name="Layer 2"><g id="_ÎÓÈ_1" data-name="—ÎÓÈ_1"><path class="cls-1" d="M40,11.16a1.33,1.33,0,0,1-.31.86A35.22,35.22,0,0,1,34,17.15c-.19.15-.39.29-.59.42L31.21,16c.46-.29.9-.58,1.32-.88a37.7,37.7,0,0,0,4.13-3.5l.46-.46-.46-.46a37,37,0,0,0-4.13-3.49,28,28,0,0,0-5.72-3.13A17.5,17.5,0,0,0,20,2.54a17.5,17.5,0,0,0-6.81,1.54A28,28,0,0,0,7.47,7.21,36.25,36.25,0,0,0,3.35,10.7l-.47.46.47.46a35.87,35.87,0,0,0,4.12,3.5,27.25,27.25,0,0,0,5.72,3.12A17.32,17.32,0,0,0,20,19.78a16,16,0,0,0,5.73-1.12l2.5,1.82c-.17.07-.33.15-.5.21a19.56,19.56,0,0,1-6.24,1.58c-.51,0-1,.06-1.49.06s-1.1,0-1.68-.08a19.4,19.4,0,0,1-6-1.56A29.9,29.9,0,0,1,6,17.15,35.38,35.38,0,0,1,.32,12h0A1.29,1.29,0,0,1,0,11.26a1.32,1.32,0,0,1,.31-.94h0A35.35,35.35,0,0,1,6,5.17a30.45,30.45,0,0,1,6.24-3.54A19.71,19.71,0,0,1,18.48.06C19,0,19.51,0,20,0s.82,0,1.24,0a19.82,19.82,0,0,1,6.49,1.59A30.38,30.38,0,0,1,34,5.17a35.63,35.63,0,0,1,5.73,5.14h0A1.33,1.33,0,0,1,40,11.16ZM35.29,21.9l-.31.4c-.44.55-1,.81-1.36.57l-6.77-4.8c-.2-.16-.22-.48-.1-.84l-1.37-1a7.35,7.35,0,1,1,1.1-1.5l1.42,1c.33-.21.65-.27.86-.11l6.77,4.8C35.84,20.69,35.73,21.34,35.29,21.9ZM25.36,11.16A5.36,5.36,0,1,0,20,16.52,5.37,5.37,0,0,0,25.36,11.16ZM20,8.55a2.62,2.62,0,1,0,2.61,2.61A2.61,2.61,0,0,0,20,8.55Z"/></g></g></svg>